<?xml version="1.0" encoding="utf-8"?>
<!-- Generator: Adobe Illustrator 19.1.0, SVG Export Plug-In . SVG Version: 6.00 Build 0)  -->
<svg version="1.1" id="Capa_1" xmlns="http://www.w3.org/2000/svg" xmlns:xlink="http://www.w3.org/1999/xlink" x="0px" y="0px"
	 viewBox="-122 339 547 547" style="enable-background:new -122 339 547 547;" xml:space="preserve">
<style type="text/css">
	.st0{fill:#231F20;}
</style>
<path class="st0" d="M197.5,728.5c-1.6-1.6-3.8-2.5-6-2.5c-2.3,0-4.4,0.9-6,2.5l-14.2,14.2V482.3l14.2,14.2c1.6,1.6,3.7,2.5,6,2.5
	c2.2,0,4.4-0.9,6-2.5l16-16c3.3-3.3,3.3-8.7,0-12l-56-56c-3.3-3.3-8.7-3.3-12,0l-56,56c-1.7,1.7-2.5,3.8-2.5,6s0.8,4.3,2.5,6l16,16
	c1.6,1.6,3.7,2.5,6,2.5c2.2,0,4.4-0.9,6-2.5l14.2-14.2v260.4l-14.2-14.2c-1.6-1.6-3.7-2.5-6-2.5s-4.4,0.9-6,2.5l-16,16
	c-1.7,1.7-2.5,3.8-2.5,6s0.8,4.3,2.5,6l56,56c3.3,3.3,8.7,3.3,12,0l56-56c3.3-3.3,3.3-8.7,0-12L197.5,728.5z"/>
</svg>
