<?xml version="1.0" encoding="utf-8"?>
<!-- Generator: Adobe Illustrator 19.1.0, SVG Export Plug-In . SVG Version: 6.00 Build 0)  -->
<svg version="1.1" id="Capa_1" xmlns="http://www.w3.org/2000/svg" xmlns:xlink="http://www.w3.org/1999/xlink" x="0px" y="0px"
	 viewBox="-258 339 547 547" style="enable-background:new -258 339 547 547;" xml:space="preserve">
<style type="text/css">
	.st0{fill:#231F20;}
</style>
<path class="st0" d="M-37.7,601.2c0-4.7-3.8-8.5-8.5-8.5l-68.5,0l14.2-14.2c1.6-1.6,2.5-3.7,2.5-6c0-2.3-0.9-4.4-2.5-6l-16-16
	c-3.3-3.3-8.7-3.3-12,0l-56,56c-3.3,3.3-3.3,8.7,0,12l56,56c1.7,1.7,3.8,2.5,6,2.5c2.2,0,4.3-0.8,6-2.5l16-16c1.6-1.6,2.5-3.7,2.5-6
	s-0.9-4.4-2.5-6l-14.2-14.2l68.5,0c2.3,0,4.4-0.9,6-2.5c1.6-1.6,2.5-3.7,2.5-6L-37.7,601.2L-37.7,601.2z"/>
<path class="st0" d="M215.5,606.5l-56-56c-3.3-3.3-8.7-3.3-12,0l-16,16c-1.6,1.6-2.5,3.7-2.5,6c0,2.3,0.9,4.4,2.5,6l14.2,14.2
	l-68.5,0c-4.7,0-8.5,3.8-8.5,8.5v22.6c0,2.3,0.9,4.4,2.5,6c1.6,1.6,3.7,2.5,6,2.5l68.5,0l-14.2,14.2c-1.6,1.6-2.5,3.7-2.5,6
	s0.9,4.4,2.5,6l16,16c1.7,1.7,3.8,2.5,6,2.5c2.2,0,4.3-0.8,6-2.5l56-56C218.8,615.2,218.8,609.8,215.5,606.5z"/>
<path class="st0" d="M-30.5,496.5c1.6,1.6,3.7,2.5,6,2.5c2.2,0,4.4-0.9,6-2.5l14.2-14.2v68.5c0,2.3,0.9,4.4,2.5,6
	c1.6,1.6,3.8,2.5,6,2.5h22.6c4.7,0,8.5-3.8,8.5-8.5v-68.5l14.2,14.2c1.6,1.6,3.7,2.5,6,2.5c2.2,0,4.4-0.9,6-2.5l16-16
	c3.3-3.3,3.3-8.7,0-12l-56-56c-3.3-3.3-8.7-3.3-12,0l-56,56c-1.7,1.7-2.5,3.8-2.5,6c0,2.2,0.8,4.3,2.5,6L-30.5,496.5z"/>
<path class="st0" d="M61.5,728.5c-1.6-1.6-3.8-2.5-6-2.5c-2.3,0-4.4,0.9-6,2.5l-14.2,14.2v-68.5c0-4.7-3.8-8.5-8.5-8.5H4.2
	c-2.3,0-4.4,0.9-6,2.5c-1.6,1.6-2.5,3.7-2.5,6v68.5l-14.2-14.2c-1.6-1.6-3.7-2.5-6-2.5c-2.3,0-4.4,0.9-6,2.5l-16,16
	c-1.7,1.7-2.5,3.8-2.5,6c0,2.2,0.8,4.3,2.5,6l56,56c3.3,3.3,8.7,3.3,12,0l56-56c3.3-3.3,3.3-8.7,0-12L61.5,728.5z"/>
</svg>
